<?xml version="1.0" encoding="utf-8"?>
<!-- Generator: Adobe Illustrator 26.0.3, SVG Export Plug-In . SVG Version: 6.00 Build 0)  -->
<svg version="1.1" id="圖層_1" xmlns="http://www.w3.org/2000/svg" xmlns:xlink="http://www.w3.org/1999/xlink" x="0px" y="0px"
	 viewBox="0 0 1000 400" style="enable-background:new 0 0 1000 400;" xml:space="preserve">
<style type="text/css">
	.st0{fill:#000;}
	.st1{fill:none;stroke:#000;stroke-width:1.5;stroke-miterlimit:10;}
	.st2{fill:none;stroke:#2A9C2B;stroke-width:2.3613;stroke-miterlimit:10;}
	.st3{fill:none;stroke:#000;stroke-width:0.5;stroke-miterlimit:10;}
	.st4{fill:#000;stroke:#000;stroke-width:0.5;stroke-miterlimit:10;}
	.st5{fill:none;stroke:#000;stroke-width:2;stroke-miterlimit:10;stroke-dasharray:1.5742,5.5096;}
	.st6{fill:url(#SVGID_1_);}
	.st7{fill:url(#SVGID_00000112620113846022319020000015744292441409051803_);}
	.st8{fill:url(#SVGID_00000155148354050027655270000011902045668437662605_);}
	.st9{fill:url(#SVGID_00000129202685571549377100000004244153214403048883_);}
	.st10{fill:url(#SVGID_00000177466182462657410990000006964887526081611705_);}
	.st11{fill:url(#SVGID_00000034089675220243875730000015907123836056925831_);}
	.st12{fill:#2A9C2B;}
	.st13{fill:url(#SVGID_00000156571680077274120260000011708995939470787714_);}
	.st14{fill:url(#SVGID_00000150084922258926380500000012364986515064680333_);}
	.st15{fill:url(#SVGID_00000179638565485429618140000014706751342473942204_);}
	.st16{fill:url(#SVGID_00000024702063408735661620000013920609526626586253_);}
	.st17{fill:url(#SVGID_00000134964353345924411200000003887122676747443603_);}
	.st18{fill:#177717;}
	.st19{fill:none;stroke:#000;stroke-width:0.7871;stroke-miterlimit:10;}
</style>
<g>
	<g>
		<path class="st0" d="M130.4,322c2.4,0,4.3-1.2,5.5-3.6l1.9,1c-0.7,1.5-1.7,2.6-3,3.4c-1.3,0.8-2.8,1.2-4.5,1.2
			c-1.8,0-3.3-0.4-4.5-1.1s-2.2-1.8-2.9-3.1c-0.7-1.3-1-2.9-1-4.8c0-1.8,0.3-3.4,1-4.7c0.7-1.3,1.6-2.3,2.9-3
			c1.3-0.7,2.8-1.1,4.5-1.1c1.8,0,3.4,0.4,4.6,1.1c1.2,0.7,2.1,1.8,2.7,3.2l-2.2,0.7c-0.4-1-1-1.8-1.9-2.3c-0.9-0.5-1.9-0.8-3.2-0.8
			c-1.9,0-3.4,0.6-4.5,1.9c-1.1,1.2-1.6,2.9-1.6,5.1c0,1.4,0.3,2.6,0.8,3.7c0.5,1.1,1.2,1.9,2.1,2.5
			C128.1,321.7,129.2,322,130.4,322z"/>
		<path class="st0" d="M143.9,323.9c-1.3,0-2.3-0.4-3-1.1c-0.7-0.7-1-1.7-1-2.9c0-1.4,0.5-2.4,1.4-3.2c0.9-0.7,2.4-1.1,4.4-1.2l3,0
			v-0.7c0-1.1-0.2-1.9-0.7-2.3c-0.5-0.5-1.2-0.7-2.2-0.7c-1,0-1.7,0.2-2.2,0.5c-0.5,0.3-0.7,0.9-0.8,1.6l-2.3-0.2
			c0.4-2.4,2.2-3.6,5.3-3.6c1.7,0,2.9,0.4,3.8,1.2c0.8,0.8,1.3,1.9,1.3,3.3v5.7c0,0.7,0.1,1.1,0.3,1.5c0.2,0.3,0.5,0.5,1,0.5
			c0.2,0,0.5,0,0.7-0.1v1.4c-0.3,0.1-0.6,0.1-0.8,0.1c-0.3,0-0.6,0-0.9,0c-0.8,0-1.4-0.2-1.8-0.6s-0.6-1.1-0.6-2h-0.1
			c-0.6,1-1.2,1.7-2,2.2C145.9,323.7,144.9,323.9,143.9,323.9z M148.6,317.1l-2.4,0c-1,0-1.8,0.1-2.4,0.3c-0.5,0.2-1,0.5-1.2,0.9
			s-0.4,0.9-0.4,1.6c0,0.7,0.2,1.3,0.6,1.7c0.4,0.4,0.9,0.6,1.7,0.6c0.8,0,1.5-0.2,2.2-0.6c0.6-0.4,1.1-0.9,1.5-1.5s0.5-1.3,0.5-2
			V317.1z"/>
		<path class="st0" d="M156.7,316.7v6.9h-2.2v-10.2c0-0.5,0-1,0-1.5s0-1.1-0.1-1.6h2.1c0,0.4,0,0.7,0,1c0,0.3,0,0.6,0,0.8
			c0,0.2,0,0.4,0,0.6c0,0.2,0,0.3,0,0.3h0c0.2-0.8,0.5-1.4,0.8-1.9c0.3-0.4,0.6-0.7,1-0.9c0.4-0.2,0.8-0.2,1.4-0.2
			c0.3,0,0.6,0,0.9,0.1v2c-0.3-0.1-0.7-0.1-1.2-0.1c-0.9,0-1.6,0.4-2.1,1.2C157,314.1,156.7,315.3,156.7,316.7z"/>
		<path class="st0" d="M174.1,317c0,2.3-0.4,4.1-1.2,5.2c-0.8,1.2-2,1.7-3.7,1.7c-1,0-1.8-0.2-2.5-0.5c-0.7-0.4-1.2-1-1.6-1.8h0
			c0,0.2,0,0.4,0,0.7c0,0.3,0,0.6,0,0.9c0,0.3,0,0.4,0,0.5h-2.1c0-0.2,0-0.6,0.1-1s0-1,0-1.7v-15.5h2.2v5.2c0,0.3,0,0.6,0,0.9
			c0,0.3,0,0.7,0,1h0c0.4-0.9,1-1.5,1.6-1.8c0.7-0.4,1.5-0.6,2.5-0.6c1.7,0,2.9,0.6,3.7,1.7S174.1,314.7,174.1,317z M171.8,317
			c0-1.9-0.2-3.2-0.7-4c-0.5-0.8-1.3-1.2-2.4-1.2c-1.2,0-2.2,0.4-2.7,1.3c-0.6,0.9-0.9,2.2-0.9,4.1c0,1.7,0.3,3,0.8,3.9
			s1.5,1.2,2.7,1.2c1.1,0,1.9-0.4,2.4-1.2C171.5,320.2,171.8,318.9,171.8,317z"/>
		<path class="st0" d="M188.1,317c0,2.3-0.5,4.1-1.5,5.2c-1,1.1-2.5,1.7-4.5,1.7c-1.9,0-3.4-0.6-4.4-1.8c-1-1.2-1.5-2.9-1.5-5.1
			c0-2.3,0.5-4,1.5-5.2c1-1.1,2.5-1.7,4.5-1.7c2,0,3.5,0.6,4.5,1.7C187.6,312.9,188.1,314.7,188.1,317z M185.8,317
			c0-1.8-0.3-3.2-0.8-4c-0.5-0.8-1.5-1.2-2.7-1.2c-1.3,0-2.2,0.4-2.8,1.3s-0.9,2.2-0.9,4c0,1.8,0.3,3.1,0.9,4
			c0.6,0.9,1.5,1.3,2.7,1.3c1.3,0,2.3-0.4,2.8-1.3C185.5,320.2,185.8,318.8,185.8,317z"/>
		<path class="st0" d="M193.1,316v7.7h-2.2v-10.5c0-0.8,0-1.4,0-1.9c0-0.5,0-0.8-0.1-1h2.1c0,0.2,0,0.4,0,0.6c0,0.2,0,0.5,0,0.8
			c0,0.3,0,0.6,0,0.9h0c0.5-0.9,1.1-1.6,1.8-1.9c0.7-0.4,1.5-0.6,2.5-0.6c1.5,0,2.5,0.4,3.2,1.1s1,1.9,1,3.6v8.9h-2.2v-8.4
			c0-1.3-0.2-2.2-0.6-2.7c-0.4-0.5-1.1-0.8-2.1-0.8c-1.1,0-1.9,0.4-2.5,1.1C193.5,313.7,193.1,314.7,193.1,316z"/>
		<path class="st0" d="M120.1,346.9v7h-2.3v-17.3h12.3v1.9h-10v6.4h9.7v1.9H120.1z"/>
		<path class="st0" d="M136.2,354.1c-1.3,0-2.3-0.4-3-1.1c-0.7-0.7-1-1.7-1-2.9c0-1.4,0.5-2.4,1.4-3.2c0.9-0.7,2.4-1.1,4.4-1.2l3,0
			v-0.7c0-1.1-0.2-1.9-0.7-2.3c-0.5-0.5-1.2-0.7-2.2-0.7c-1,0-1.7,0.2-2.2,0.5c-0.5,0.3-0.7,0.9-0.8,1.6l-2.3-0.2
			c0.4-2.4,2.2-3.6,5.3-3.6c1.7,0,2.9,0.4,3.8,1.2c0.8,0.8,1.3,1.9,1.3,3.3v5.7c0,0.7,0.1,1.1,0.3,1.5c0.2,0.3,0.5,0.5,1,0.5
			c0.2,0,0.5,0,0.7-0.1v1.4c-0.3,0.1-0.6,0.1-0.8,0.1c-0.3,0-0.6,0-0.9,0c-0.8,0-1.4-0.2-1.8-0.6s-0.6-1.1-0.6-2h-0.1
			c-0.6,1-1.2,1.7-2,2.2C138.2,353.9,137.3,354.1,136.2,354.1z M140.9,347.3l-2.4,0c-1,0-1.8,0.1-2.4,0.3c-0.5,0.2-1,0.5-1.2,0.9
			s-0.4,0.9-0.4,1.6c0,0.7,0.2,1.3,0.6,1.7c0.4,0.4,0.9,0.6,1.7,0.6c0.8,0,1.5-0.2,2.2-0.6c0.6-0.4,1.1-0.9,1.5-1.5s0.5-1.3,0.5-2
			V347.3z"/>
		<path class="st0" d="M149.1,347v6.9h-2.2v-10.2c0-0.5,0-1,0-1.5s0-1.1-0.1-1.6h2.1c0,0.4,0,0.7,0,1c0,0.3,0,0.6,0,0.8
			c0,0.2,0,0.4,0,0.6c0,0.2,0,0.3,0,0.3h0c0.2-0.8,0.5-1.4,0.8-1.9c0.3-0.4,0.6-0.7,1-0.9c0.4-0.2,0.8-0.2,1.4-0.2
			c0.3,0,0.6,0,0.9,0.1v2c-0.3-0.1-0.7-0.1-1.2-0.1c-0.9,0-1.6,0.4-2.1,1.2C149.3,344.4,149.1,345.5,149.1,347z"/>
		<path class="st0" d="M157.4,346.2v7.7h-2.2v-10.5c0-0.8,0-1.4,0-1.9c0-0.5,0-0.8-0.1-1h2.1c0,0.2,0,0.4,0,0.7c0,0.3,0,0.5,0,0.8
			c0,0.3,0,0.5,0,0.8h0c0.5-0.9,1-1.6,1.6-2s1.4-0.6,2.3-0.6c1,0,1.8,0.2,2.4,0.6c0.6,0.4,1,1,1.2,1.9h0c0.5-0.9,1-1.5,1.7-1.9
			c0.7-0.4,1.4-0.6,2.4-0.6c1.3,0,2.3,0.4,2.9,1.1s0.9,1.9,0.9,3.6v8.9h-2.2v-8.4c0-1.3-0.2-2.2-0.5-2.7s-1-0.7-1.9-0.7
			c-1,0-1.7,0.4-2.3,1.1c-0.5,0.7-0.8,1.7-0.8,3.1v7.7h-2.2v-8.4c0-1.3-0.2-2.2-0.5-2.7s-1-0.7-1.9-0.7c-0.9,0-1.7,0.4-2.2,1.1
			S157.4,344.9,157.4,346.2z"/>
		<path class="st0" d="M178.4,335.6v2.1h-2.2v-2.1H178.4z M178.4,340.6v13.3h-2.2v-13.3H178.4z"/>
		<path class="st0" d="M184,346.2v7.7h-2.2v-10.5c0-0.8,0-1.4,0-1.9c0-0.5,0-0.8-0.1-1h2.1c0,0.2,0,0.4,0,0.6c0,0.2,0,0.5,0,0.8
			c0,0.3,0,0.6,0,0.9h0c0.5-0.9,1.1-1.6,1.8-1.9c0.7-0.4,1.5-0.6,2.5-0.6c1.5,0,2.5,0.4,3.2,1.1s1,1.9,1,3.6v8.9h-2.2v-8.4
			c0-1.3-0.2-2.2-0.6-2.7c-0.4-0.5-1.1-0.8-2.1-0.8c-1.1,0-1.9,0.4-2.5,1.1C184.3,343.9,184,344.9,184,346.2z"/>
		<path class="st0" d="M200.8,359.1c-1.5,0-2.6-0.3-3.5-0.9c-0.9-0.6-1.4-1.4-1.7-2.4l2.2-0.3c0.1,0.6,0.5,1.1,1,1.4
			c0.5,0.3,1.2,0.5,2,0.5c1.1,0,1.9-0.3,2.5-1c0.6-0.6,0.8-1.6,0.8-2.9v-2.1h0c-0.4,0.9-1,1.5-1.7,1.9c-0.7,0.4-1.6,0.6-2.6,0.6
			c-1.6,0-2.8-0.5-3.6-1.6c-0.8-1.1-1.1-2.8-1.1-5.1c0-2.4,0.4-4.1,1.2-5.2c0.8-1.1,2.1-1.7,3.8-1.7c0.9,0,1.8,0.2,2.5,0.6
			c0.7,0.4,1.2,1,1.6,1.8h0c0-0.2,0-0.4,0-0.8s0-0.7,0.1-1c0-0.3,0-0.5,0.1-0.5h2.1c0,0.4-0.1,1.4-0.1,2.8v10.2
			c0,1.9-0.5,3.3-1.4,4.2C204.1,358.7,202.7,359.1,200.8,359.1z M204.2,347.2c0-1.6-0.3-2.9-1-3.8c-0.7-0.9-1.5-1.4-2.5-1.4
			c-1.1,0-2,0.4-2.5,1.2c-0.5,0.8-0.8,2.1-0.8,4c0,1.8,0.2,3.1,0.7,3.9c0.5,0.8,1.3,1.2,2.5,1.2c1,0,1.9-0.5,2.6-1.4
			C203.8,350.1,204.2,348.8,204.2,347.2z"/>
	</g>
	<g>
		<path class="st0" d="M592.5,314.9c0,1.6-0.3,3.1-0.8,4.3c-0.6,1.3-1.4,2.3-2.4,3c-1,0.8-2.3,1.3-3.8,1.5c0.3,1,0.8,1.8,1.3,2.2
			c0.5,0.5,1.2,0.7,2.1,0.7c0.5,0,0.9-0.1,1.4-0.2v1.6c-0.7,0.2-1.5,0.3-2.2,0.3c-1.2,0-2.3-0.4-3.1-1.1c-0.8-0.7-1.5-1.9-2-3.5
			c-1.7-0.1-3.1-0.5-4.2-1.3s-2.1-1.8-2.7-3.1c-0.6-1.3-0.9-2.8-0.9-4.6c0-1.9,0.3-3.4,1-4.8c0.7-1.3,1.7-2.3,3-3
			c1.3-0.7,2.8-1.1,4.6-1.1c1.8,0,3.4,0.4,4.6,1.1c1.3,0.7,2.3,1.7,2.9,3.1C592.2,311.5,592.5,313.1,592.5,314.9z M590.1,314.9
			c0-2.2-0.5-3.8-1.6-5.1s-2.6-1.8-4.6-1.8c-2,0-3.5,0.6-4.6,1.8c-1.1,1.2-1.6,2.9-1.6,5.1c0,1.4,0.2,2.7,0.7,3.8
			c0.5,1.1,1.2,1.9,2.1,2.5s2,0.9,3.3,0.9c2,0,3.5-0.6,4.6-1.9C589.6,318.9,590.1,317.2,590.1,314.9z"/>
		<path class="st0" d="M603.9,321.4c-0.5,0.9-1.1,1.6-1.8,1.9c-0.7,0.4-1.5,0.6-2.5,0.6c-1.5,0-2.5-0.4-3.2-1.1s-1-1.9-1-3.6v-8.9
			h2.2v8.4c0,1.3,0.2,2.2,0.6,2.7c0.4,0.5,1.1,0.7,2.1,0.7c1.1,0,1.9-0.4,2.5-1.1c0.6-0.7,0.9-1.7,0.9-3v-7.7h2.2v10.5
			c0,0.8,0,1.4,0,1.9c0,0.5,0,0.8,0.1,1H604c0,0,0-0.2,0-0.6S603.9,322.2,603.9,321.4L603.9,321.4z"/>
		<path class="st0" d="M612.8,323.9c-1.3,0-2.3-0.4-3-1.1c-0.7-0.7-1-1.7-1-2.9c0-1.4,0.5-2.4,1.4-3.2c0.9-0.7,2.4-1.1,4.4-1.2l3,0
			v-0.7c0-1.1-0.2-1.9-0.7-2.3c-0.5-0.5-1.2-0.7-2.2-0.7c-1,0-1.7,0.2-2.2,0.5c-0.5,0.3-0.7,0.9-0.8,1.6l-2.3-0.2
			c0.4-2.4,2.2-3.6,5.3-3.6c1.7,0,2.9,0.4,3.8,1.2c0.8,0.8,1.3,1.9,1.3,3.3v5.7c0,0.7,0.1,1.1,0.3,1.5c0.2,0.3,0.5,0.5,1,0.5
			c0.2,0,0.5,0,0.7-0.1v1.4c-0.3,0.1-0.6,0.1-0.8,0.1c-0.3,0-0.6,0-0.9,0c-0.8,0-1.4-0.2-1.8-0.6s-0.6-1.1-0.6-2h-0.1
			c-0.6,1-1.2,1.7-2,2.2C614.8,323.7,613.9,323.9,612.8,323.9z M617.6,317.1l-2.4,0c-1,0-1.8,0.1-2.4,0.3c-0.5,0.2-1,0.5-1.2,0.9
			s-0.4,0.9-0.4,1.6c0,0.7,0.2,1.3,0.6,1.7c0.4,0.4,0.9,0.6,1.7,0.6c0.8,0,1.5-0.2,2.2-0.6c0.6-0.4,1.1-0.9,1.5-1.5
			c0.4-0.6,0.5-1.3,0.5-2V317.1z"/>
		<path class="st0" d="M625.7,305.4v18.3h-2.2v-18.3H625.7z"/>
		<path class="st0" d="M631.3,305.4v2.1H629v-2.1H631.3z M631.3,310.4v13.3H629v-13.3H631.3z"/>
		<path class="st0" d="M639.8,323.6c-0.7,0.2-1.5,0.3-2.2,0.3c-0.9,0-1.5-0.3-2-0.8c-0.4-0.5-0.7-1.3-0.7-2.3V312h-1.5v-1.6h1.6
			l0.7-3h1.5v3h2.5v1.6h-2.5v8.4c0,0.6,0.1,1.1,0.3,1.3c0.2,0.3,0.6,0.4,1.1,0.4c0.3,0,0.7-0.1,1.3-0.2V323.6z"/>
		<path class="st0" d="M642.3,328.9c-0.6,0-1.1,0-1.5-0.1v-1.7c0.3,0,0.7,0.1,1,0.1c0.7,0,1.3-0.3,1.9-0.8s1.1-1.4,1.6-2.8
			l-5.3-13.2h2.4l2.8,7.4c0.2,0.5,0.4,1.1,0.7,1.8s0.4,1.2,0.5,1.8c0.2-0.6,0.4-1.2,0.6-1.7s0.4-1.1,0.6-1.7l2.5-7.4h2.3l-5.1,13.3
			c-0.3,0.7-0.5,1.3-0.8,1.9c-0.3,0.5-0.5,1-0.7,1.3c-0.5,0.7-1,1.2-1.6,1.6C643.7,328.7,643,328.9,642.3,328.9z"/>
		<path class="st0" d="M586.3,348.8l-2,5.1h-2.4l7.1-17.3h2.7l7,17.3h-2.4l-2-5.1H586.3z M590.3,338.3c-0.1,0.5-0.3,1-0.5,1.5
			c-0.2,0.6-0.4,1.1-0.5,1.5L587,347h6.5l-2.2-5.7c-0.1-0.3-0.3-0.7-0.5-1.2C590.7,339.5,590.5,339,590.3,338.3z"/>
		<path class="st0" d="M610.3,350.2c0,1.3-0.5,2.2-1.4,2.9s-2.3,1-4,1c-1.7,0-2.9-0.3-3.8-0.8c-0.9-0.5-1.5-1.4-1.8-2.6l2-0.4
			c0.2,0.7,0.6,1.2,1.2,1.6c0.6,0.3,1.4,0.5,2.5,0.5c1.1,0,1.9-0.2,2.5-0.5c0.5-0.3,0.8-0.9,0.8-1.5c0-0.5-0.2-1-0.5-1.3
			c-0.4-0.3-0.9-0.6-1.7-0.8c-1-0.3-1.7-0.5-2.3-0.6s-1-0.3-1.3-0.4c-0.3-0.1-0.5-0.2-0.7-0.3c-0.5-0.3-1-0.7-1.3-1.1
			c-0.3-0.5-0.5-1-0.5-1.7c0-1.2,0.4-2.1,1.3-2.8s2.1-1,3.8-1c1.5,0,2.6,0.3,3.5,0.8s1.4,1.3,1.6,2.5l-2,0.2c-0.1-0.6-0.5-1-1-1.4
			c-0.5-0.3-1.3-0.5-2.2-0.5c-1,0-1.7,0.2-2.2,0.5c-0.5,0.3-0.7,0.8-0.7,1.4c0,0.5,0.1,0.8,0.4,1.1s0.8,0.5,1.5,0.7
			c1,0.2,2,0.5,2.9,0.8c0.9,0.3,1.6,0.6,2,0.9c0.5,0.3,0.8,0.7,1.1,1.2S610.3,349.6,610.3,350.2z"/>
		<path class="st0" d="M622.9,350.2c0,1.3-0.5,2.2-1.4,2.9s-2.3,1-4,1c-1.7,0-2.9-0.3-3.8-0.8c-0.9-0.5-1.5-1.4-1.8-2.6l2-0.4
			c0.2,0.7,0.6,1.2,1.2,1.6c0.6,0.3,1.4,0.5,2.5,0.5c1.1,0,1.9-0.2,2.5-0.5c0.5-0.3,0.8-0.9,0.8-1.5c0-0.5-0.2-1-0.5-1.3
			c-0.4-0.3-0.9-0.6-1.7-0.8c-1-0.3-1.7-0.5-2.3-0.6s-1-0.3-1.3-0.4c-0.3-0.1-0.5-0.2-0.7-0.3c-0.5-0.3-1-0.7-1.3-1.1
			c-0.3-0.5-0.5-1-0.5-1.7c0-1.2,0.4-2.1,1.3-2.8s2.1-1,3.8-1c1.5,0,2.6,0.3,3.5,0.8s1.4,1.3,1.6,2.5l-2,0.2c-0.1-0.6-0.5-1-1-1.4
			c-0.5-0.3-1.3-0.5-2.2-0.5c-1,0-1.7,0.2-2.2,0.5c-0.5,0.3-0.7,0.8-0.7,1.4c0,0.5,0.1,0.8,0.4,1.1s0.8,0.5,1.5,0.7
			c1,0.2,2,0.5,2.9,0.8c0.9,0.3,1.6,0.6,2,0.9c0.5,0.3,0.8,0.7,1.1,1.2S622.9,349.6,622.9,350.2z"/>
		<path class="st0" d="M627.2,347.7c0,1.5,0.3,2.7,0.9,3.5c0.6,0.8,1.6,1.2,2.8,1.2c1,0,1.7-0.2,2.3-0.6s1-0.9,1.2-1.5l1.9,0.6
			c-0.8,2.1-2.6,3.1-5.4,3.1c-2,0-3.5-0.6-4.5-1.8c-1-1.2-1.5-2.9-1.5-5.2c0-2.2,0.5-3.9,1.5-5.1s2.5-1.8,4.4-1.8
			c2,0,3.4,0.6,4.4,1.8s1.5,2.9,1.5,5.3v0.3H627.2z M634.4,346c-0.1-1.4-0.5-2.4-1.1-3.1c-0.6-0.6-1.4-1-2.5-1
			c-1.1,0-1.9,0.4-2.6,1.1s-1,1.7-1,3H634.4z"/>
		<path class="st0" d="M644.7,353.8c-0.7,0.2-1.5,0.3-2.2,0.3c-0.9,0-1.5-0.3-2-0.8c-0.4-0.5-0.7-1.3-0.7-2.3v-8.9h-1.5v-1.6h1.6
			l0.7-3h1.5v3h2.5v1.6H642v8.4c0,0.6,0.1,1.1,0.3,1.3c0.2,0.3,0.6,0.4,1.1,0.4c0.3,0,0.7-0.1,1.3-0.2V353.8z"/>
	</g>
	<g>
		<path class="st0" d="M358.4,318.8c0,1.5-0.6,2.7-1.7,3.6c-1.1,0.9-2.7,1.3-4.7,1.3h-7v-17.3h6.3c2,0,3.6,0.4,4.6,1.1
			c1,0.7,1.5,1.8,1.5,3.2c0,1-0.3,1.9-0.9,2.6c-0.6,0.7-1.4,1.2-2.4,1.4c1.4,0.2,2.4,0.6,3.2,1.4S358.4,317.6,358.4,318.8z
			 M355,310.8c0-0.9-0.3-1.6-1-2s-1.6-0.6-2.8-0.6h-3.9v5.5h3.9c1.3,0,2.2-0.2,2.8-0.7C354.7,312.5,355,311.8,355,310.8z M356,318.6
			c0-2-1.4-3.1-4.3-3.1h-4.4v6.2h4.6c1.4,0,2.5-0.3,3.1-0.8C355.7,320.5,356,319.7,356,318.6z"/>
		<path class="st0" d="M363.6,305.4v2.1h-2.2v-2.1H363.6z M363.6,310.4v13.3h-2.2v-13.3H363.6z"/>
		<path class="st0" d="M378.3,317c0,2.3-0.5,4.1-1.5,5.2c-1,1.1-2.5,1.7-4.5,1.7c-1.9,0-3.4-0.6-4.4-1.8c-1-1.2-1.5-2.9-1.5-5.1
			c0-2.3,0.5-4,1.5-5.2c1-1.1,2.5-1.7,4.5-1.7c2,0,3.5,0.6,4.5,1.7C377.8,312.9,378.3,314.7,378.3,317z M376,317
			c0-1.8-0.3-3.2-0.8-4c-0.5-0.8-1.5-1.2-2.7-1.2c-1.3,0-2.2,0.4-2.8,1.3s-0.9,2.2-0.9,4c0,1.8,0.3,3.1,0.9,4
			c0.6,0.9,1.5,1.3,2.7,1.3c1.3,0,2.3-0.4,2.8-1.3C375.7,320.2,376,318.8,376,317z"/>
		<path class="st0" d="M383.3,305.4v18.3H381v-18.3H383.3z"/>
		<path class="st0" d="M397.9,317c0,2.3-0.5,4.1-1.5,5.2c-1,1.1-2.5,1.7-4.5,1.7c-1.9,0-3.4-0.6-4.4-1.8c-1-1.2-1.5-2.9-1.5-5.1
			c0-2.3,0.5-4,1.5-5.2c1-1.1,2.5-1.7,4.5-1.7c2,0,3.5,0.6,4.5,1.7C397.4,312.9,397.9,314.7,397.9,317z M395.6,317
			c0-1.8-0.3-3.2-0.8-4c-0.5-0.8-1.5-1.2-2.7-1.2c-1.3,0-2.2,0.4-2.8,1.3s-0.9,2.2-0.9,4c0,1.8,0.3,3.1,0.9,4
			c0.6,0.9,1.5,1.3,2.7,1.3c1.3,0,2.3-0.4,2.8-1.3C395.3,320.2,395.6,318.8,395.6,317z"/>
		<path class="st0" d="M405.7,328.9c-1.5,0-2.6-0.3-3.5-0.9c-0.9-0.6-1.4-1.4-1.7-2.4l2.2-0.3c0.1,0.6,0.5,1.1,1,1.4
			c0.5,0.3,1.2,0.5,2,0.5c1.1,0,1.9-0.3,2.5-1c0.6-0.6,0.8-1.6,0.8-2.9v-2.1h0c-0.4,0.9-1,1.5-1.7,1.9c-0.7,0.4-1.6,0.6-2.6,0.6
			c-1.6,0-2.8-0.5-3.6-1.6c-0.8-1.1-1.1-2.8-1.1-5.1c0-2.4,0.4-4.1,1.2-5.2c0.8-1.1,2.1-1.7,3.8-1.7c0.9,0,1.8,0.2,2.5,0.6
			c0.7,0.4,1.2,1,1.6,1.8h0c0-0.2,0-0.4,0-0.8s0-0.7,0.1-1c0-0.3,0-0.5,0.1-0.5h2.1c0,0.4-0.1,1.4-0.1,2.8v10.2
			c0,1.9-0.5,3.3-1.4,4.2C408.9,328.4,407.5,328.9,405.7,328.9z M409.1,317c0-1.6-0.3-2.9-1-3.8c-0.7-0.9-1.5-1.4-2.5-1.4
			c-1.1,0-2,0.4-2.5,1.2c-0.5,0.8-0.8,2.1-0.8,4c0,1.8,0.2,3.1,0.7,3.9c0.5,0.8,1.3,1.2,2.5,1.2c1,0,1.9-0.5,2.6-1.4
			C408.7,319.9,409.1,318.6,409.1,317z"/>
		<path class="st0" d="M416.9,305.4v2.1h-2.2v-2.1H416.9z M416.9,310.4v13.3h-2.2v-13.3H416.9z"/>
		<path class="st0" d="M425.4,323.9c-1.9,0-3.3-0.6-4.3-1.8c-1-1.2-1.5-2.9-1.5-5.1c0-2.2,0.5-3.9,1.5-5.1c1-1.2,2.4-1.8,4.2-1.8
			c1.4,0,2.5,0.4,3.4,1.1c0.9,0.7,1.5,1.7,1.7,2.9l-2.3,0.2c-0.1-0.7-0.4-1.3-0.9-1.8s-1.1-0.7-2-0.7c-1.2,0-2,0.4-2.5,1.2
			c-0.5,0.8-0.8,2.1-0.8,3.9c0,1.8,0.3,3.1,0.8,3.9s1.4,1.3,2.5,1.3c0.8,0,1.4-0.2,2-0.6c0.5-0.4,0.9-1.1,1-2l2.2,0.1
			c-0.1,0.9-0.4,1.6-0.9,2.2c-0.5,0.6-1,1.1-1.8,1.5S426.3,323.9,425.4,323.9z"/>
		<path class="st0" d="M436.2,323.9c-1.3,0-2.3-0.4-3-1.1c-0.7-0.7-1-1.7-1-2.9c0-1.4,0.5-2.4,1.4-3.2c0.9-0.7,2.4-1.1,4.4-1.2l3,0
			v-0.7c0-1.1-0.2-1.9-0.7-2.3c-0.5-0.5-1.2-0.7-2.2-0.7c-1,0-1.7,0.2-2.2,0.5c-0.5,0.3-0.7,0.9-0.8,1.6l-2.3-0.2
			c0.4-2.4,2.2-3.6,5.3-3.6c1.7,0,2.9,0.4,3.8,1.2c0.8,0.8,1.3,1.9,1.3,3.3v5.7c0,0.7,0.1,1.1,0.3,1.5c0.2,0.3,0.5,0.5,1,0.5
			c0.2,0,0.5,0,0.7-0.1v1.4c-0.3,0.1-0.6,0.1-0.8,0.1c-0.3,0-0.6,0-0.9,0c-0.8,0-1.4-0.2-1.8-0.6s-0.6-1.1-0.6-2h-0.1
			c-0.6,1-1.2,1.7-2,2.2C438.2,323.7,437.3,323.9,436.2,323.9z M440.9,317.1l-2.4,0c-1,0-1.8,0.1-2.4,0.3c-0.5,0.2-1,0.5-1.2,0.9
			s-0.4,0.9-0.4,1.6c0,0.7,0.2,1.3,0.6,1.7c0.4,0.4,0.9,0.6,1.7,0.6c0.8,0,1.5-0.2,2.2-0.6c0.6-0.4,1.1-0.9,1.5-1.5s0.5-1.3,0.5-2
			V317.1z"/>
		<path class="st0" d="M449.1,305.4v18.3h-2.2v-18.3H449.1z"/>
		<path class="st0" d="M368.9,341.8c0,1.1-0.2,2-0.7,2.8c-0.5,0.8-1.2,1.4-2.1,1.9c-0.9,0.4-1.9,0.7-3.2,0.7h-5.1v6.8h-2.3v-17.3
			h7.3c1.9,0,3.4,0.5,4.5,1.4C368.4,338.8,368.9,340.1,368.9,341.8z M366.6,341.8c0-2.2-1.3-3.4-4-3.4h-4.7v6.8h4.8
			c1.3,0,2.3-0.3,3-0.9S366.6,343,366.6,341.8z"/>
		<path class="st0" d="M374.2,347v6.9H372v-10.2c0-0.5,0-1,0-1.5s0-1.1-0.1-1.6h2.1c0,0.4,0,0.7,0,1c0,0.3,0,0.6,0,0.8
			c0,0.2,0,0.4,0,0.6c0,0.2,0,0.3,0,0.3h0c0.2-0.8,0.5-1.4,0.8-1.9c0.3-0.4,0.6-0.7,1-0.9c0.4-0.2,0.8-0.2,1.4-0.2
			c0.3,0,0.6,0,0.9,0.1v2c-0.3-0.1-0.7-0.1-1.2-0.1c-0.9,0-1.6,0.4-2.1,1.2C374.4,344.4,374.2,345.5,374.2,347z"/>
		<path class="st0" d="M391.6,347.2c0,2.3-0.5,4.1-1.5,5.2c-1,1.1-2.5,1.7-4.5,1.7c-1.9,0-3.4-0.6-4.4-1.8c-1-1.2-1.5-2.9-1.5-5.1
			c0-2.3,0.5-4,1.5-5.2c1-1.1,2.5-1.7,4.5-1.7c2,0,3.5,0.6,4.5,1.7C391.1,343.1,391.6,344.9,391.6,347.2z M389.3,347.2
			c0-1.8-0.3-3.2-0.8-4c-0.5-0.8-1.5-1.2-2.7-1.2c-1.3,0-2.2,0.4-2.8,1.3s-0.9,2.2-0.9,4c0,1.8,0.3,3.1,0.9,4
			c0.6,0.9,1.5,1.3,2.7,1.3c1.3,0,2.3-0.4,2.8-1.3C389,350.4,389.3,349,389.3,347.2z"/>
		<path class="st0" d="M402.9,353.9c0-0.1,0-0.3-0.1-0.5c0-0.2,0-0.5,0-0.8c0-0.3,0-0.6,0-0.8h0c-0.4,0.9-1,1.5-1.6,1.8
			s-1.5,0.6-2.5,0.6c-1.7,0-2.9-0.6-3.7-1.7c-0.8-1.1-1.2-2.8-1.2-5.1c0-2.3,0.4-4.1,1.2-5.2s2-1.7,3.7-1.7c1,0,1.8,0.2,2.5,0.6
			c0.7,0.4,1.2,1,1.6,1.8h0l0-1.5v-5.5h2.2v15.5c0,0.7,0,1.3,0,1.7s0,0.8,0.1,1H402.9z M396,347.2c0,1.9,0.2,3.2,0.7,4
			c0.5,0.8,1.3,1.2,2.4,1.2c1.3,0,2.2-0.4,2.7-1.3c0.6-0.9,0.8-2.2,0.8-4c0-1.8-0.3-3.1-0.8-3.9c-0.6-0.8-1.5-1.2-2.7-1.2
			c-1.1,0-1.9,0.4-2.4,1.2C396.3,344,396,345.4,396,347.2z"/>
		<path class="st0" d="M416.8,351.6c-0.5,0.9-1.1,1.6-1.8,1.9c-0.7,0.4-1.5,0.6-2.5,0.6c-1.5,0-2.5-0.4-3.2-1.1
			c-0.7-0.7-1-1.9-1-3.6v-8.9h2.2v8.4c0,1.3,0.2,2.2,0.6,2.7c0.4,0.5,1.1,0.7,2.1,0.7c1.1,0,1.9-0.4,2.5-1.1c0.6-0.7,0.9-1.7,0.9-3
			v-7.7h2.2v10.5c0,0.8,0,1.4,0,1.9s0,0.8,0.1,1h-2.1c0,0,0-0.2,0-0.6S416.8,352.4,416.8,351.6L416.8,351.6z"/>
		<path class="st0" d="M427.5,354.1c-1.9,0-3.3-0.6-4.3-1.8c-1-1.2-1.5-2.9-1.5-5.1c0-2.2,0.5-3.9,1.5-5.1c1-1.2,2.4-1.8,4.2-1.8
			c1.4,0,2.5,0.4,3.4,1.1c0.9,0.7,1.5,1.7,1.7,2.9l-2.3,0.2c-0.1-0.7-0.4-1.3-0.9-1.8s-1.1-0.7-2-0.7c-1.2,0-2,0.4-2.5,1.2
			c-0.5,0.8-0.8,2.1-0.8,3.9c0,1.8,0.3,3.1,0.8,3.9s1.4,1.3,2.5,1.3c0.8,0,1.4-0.2,2-0.6c0.5-0.4,0.9-1.1,1-2l2.2,0.1
			c-0.1,0.9-0.4,1.6-0.9,2.2c-0.5,0.6-1,1.1-1.8,1.5S428.4,354.1,427.5,354.1z"/>
		<path class="st0" d="M440.1,353.8c-0.7,0.2-1.5,0.3-2.2,0.3c-0.9,0-1.5-0.3-2-0.8s-0.7-1.3-0.7-2.3v-8.9h-1.5v-1.6h1.6l0.7-3h1.5
			v3h2.5v1.6h-2.5v8.4c0,0.6,0.1,1.1,0.3,1.3c0.2,0.3,0.6,0.4,1.1,0.4c0.3,0,0.7-0.1,1.3-0.2V353.8z"/>
	</g>
	<g>
		<path class="st0" d="M799.6,311.6c0,1.1-0.2,2-0.7,2.8c-0.5,0.8-1.2,1.4-2.1,1.9c-0.9,0.4-1.9,0.7-3.2,0.7h-5.1v6.8h-2.3v-17.3
			h7.3c1.9,0,3.4,0.5,4.5,1.4C799.1,308.6,799.6,309.9,799.6,311.6z M797.3,311.6c0-2.2-1.3-3.4-4-3.4h-4.7v6.8h4.8
			c1.3,0,2.3-0.3,3-0.9S797.3,312.7,797.3,311.6z"/>
		<path class="st0" d="M804.9,316.7v6.9h-2.2v-10.2c0-0.5,0-1,0-1.5c0-0.5,0-1.1-0.1-1.6h2.1c0,0.4,0,0.7,0,1c0,0.3,0,0.6,0,0.8
			c0,0.2,0,0.4,0,0.6s0,0.3,0,0.3h0c0.2-0.8,0.5-1.4,0.8-1.9c0.3-0.4,0.6-0.7,1-0.9c0.4-0.2,0.8-0.2,1.4-0.2c0.3,0,0.6,0,0.9,0.1v2
			c-0.3-0.1-0.7-0.1-1.2-0.1c-0.9,0-1.6,0.4-2.1,1.2C805.2,314.1,804.9,315.3,804.9,316.7z"/>
		<path class="st0" d="M812.8,317.5c0,1.5,0.3,2.7,0.9,3.5c0.6,0.8,1.6,1.2,2.8,1.2c1,0,1.7-0.2,2.3-0.6s1-0.9,1.2-1.5l1.9,0.6
			c-0.8,2.1-2.6,3.1-5.4,3.1c-2,0-3.5-0.6-4.5-1.8c-1-1.2-1.5-2.9-1.5-5.2c0-2.2,0.5-3.9,1.5-5.1s2.5-1.8,4.4-1.8
			c2,0,3.4,0.6,4.4,1.8s1.5,2.9,1.5,5.3v0.3H812.8z M820,315.8c-0.1-1.4-0.5-2.4-1.1-3.1c-0.6-0.6-1.4-1-2.5-1
			c-1.1,0-1.9,0.4-2.6,1.1s-1,1.7-1,3H820z"/>
		<path class="st0" d="M827.3,316v7.7h-2.2v-10.5c0-0.8,0-1.4,0-1.9c0-0.5,0-0.8-0.1-1h2.1c0,0.2,0,0.4,0,0.7s0,0.5,0,0.8
			c0,0.3,0,0.5,0,0.8h0c0.5-0.9,1-1.6,1.6-2s1.4-0.6,2.3-0.6c1,0,1.8,0.2,2.4,0.6c0.6,0.4,1,1,1.2,1.9h0c0.5-0.9,1-1.5,1.7-1.9
			c0.7-0.4,1.4-0.6,2.4-0.6c1.3,0,2.3,0.4,2.9,1.1c0.6,0.7,0.9,1.9,0.9,3.6v8.9h-2.2v-8.4c0-1.3-0.2-2.2-0.5-2.7s-1-0.7-1.9-0.7
			c-1,0-1.7,0.4-2.3,1.1c-0.5,0.7-0.8,1.7-0.8,3.1v7.7h-2.2v-8.4c0-1.3-0.2-2.2-0.5-2.7s-1-0.7-1.9-0.7c-0.9,0-1.7,0.4-2.2,1.1
			C827.6,313.6,827.3,314.7,827.3,316z"/>
		<path class="st0" d="M848.2,305.4v2.1H846v-2.1H848.2z M848.2,310.4v13.3H846v-13.3H848.2z"/>
		<path class="st0" d="M860.1,321.4c-0.5,0.9-1.1,1.6-1.8,1.9c-0.7,0.4-1.5,0.6-2.5,0.6c-1.5,0-2.5-0.4-3.2-1.1s-1-1.9-1-3.6v-8.9
			h2.2v8.4c0,1.3,0.2,2.2,0.6,2.7c0.4,0.5,1.1,0.7,2.1,0.7c1.1,0,1.9-0.4,2.5-1.1c0.6-0.7,0.9-1.7,0.9-3v-7.7h2.2v10.5
			c0,0.8,0,1.4,0,1.9c0,0.5,0,0.8,0.1,1h-2.1c0,0,0-0.2,0-0.6S860.1,322.2,860.1,321.4L860.1,321.4z"/>
		<path class="st0" d="M867.9,316v7.7h-2.2v-10.5c0-0.8,0-1.4,0-1.9c0-0.5,0-0.8-0.1-1h2.1c0,0.2,0,0.4,0,0.7s0,0.5,0,0.8
			c0,0.3,0,0.5,0,0.8h0c0.5-0.9,1-1.6,1.6-2s1.4-0.6,2.3-0.6c1,0,1.8,0.2,2.4,0.6c0.6,0.4,1,1,1.2,1.9h0c0.5-0.9,1-1.5,1.7-1.9
			c0.7-0.4,1.4-0.6,2.4-0.6c1.3,0,2.3,0.4,2.9,1.1c0.6,0.7,0.9,1.9,0.9,3.6v8.9h-2.2v-8.4c0-1.3-0.2-2.2-0.5-2.7s-1-0.7-1.9-0.7
			c-1,0-1.7,0.4-2.3,1.1c-0.5,0.7-0.8,1.7-0.8,3.1v7.7h-2.2v-8.4c0-1.3-0.2-2.2-0.5-2.7s-1-0.7-1.9-0.7c-0.9,0-1.7,0.4-2.2,1.1
			C868.2,313.6,867.9,314.7,867.9,316z"/>
		<path class="st0" d="M804.7,346.7v7.2h-2.3v-17.3h8.2c2,0,3.5,0.4,4.5,1.3s1.6,2.1,1.6,3.6c0,1.3-0.4,2.4-1.1,3.2
			c-0.8,0.9-1.8,1.4-3.1,1.7l4.9,7.5h-2.7l-4.5-7.2H804.7z M814.2,341.5c0-1-0.3-1.8-1-2.3c-0.7-0.5-1.7-0.8-3-0.8h-5.6v6.4h5.7
			c1.2,0,2.2-0.3,2.9-0.9C813.9,343.4,814.2,342.6,814.2,341.5z"/>
		<path class="st0" d="M821.8,347.7c0,1.5,0.3,2.7,0.9,3.5c0.6,0.8,1.6,1.2,2.8,1.2c1,0,1.7-0.2,2.3-0.6s1-0.9,1.2-1.5l1.9,0.6
			c-0.8,2.1-2.6,3.1-5.4,3.1c-2,0-3.5-0.6-4.5-1.8c-1-1.2-1.5-2.9-1.5-5.2c0-2.2,0.5-3.9,1.5-5.1s2.5-1.8,4.4-1.8
			c2,0,3.4,0.6,4.4,1.8s1.5,2.9,1.5,5.3v0.3H821.8z M829,346c-0.1-1.4-0.5-2.4-1.1-3.1c-0.6-0.6-1.4-1-2.5-1c-1.1,0-1.9,0.4-2.6,1.1
			s-1,1.7-1,3H829z"/>
		<path class="st0" d="M839.3,353.8c-0.7,0.2-1.5,0.3-2.2,0.3c-0.9,0-1.5-0.3-2-0.8c-0.4-0.5-0.7-1.3-0.7-2.3v-8.9h-1.5v-1.6h1.6
			l0.7-3h1.5v3h2.5v1.6h-2.5v8.4c0,0.6,0.1,1.1,0.3,1.3c0.2,0.3,0.6,0.4,1.1,0.4c0.3,0,0.7-0.1,1.3-0.2V353.8z"/>
		<path class="st0" d="M849.6,351.6c-0.5,0.9-1.1,1.6-1.8,1.9c-0.7,0.4-1.5,0.6-2.5,0.6c-1.5,0-2.5-0.4-3.2-1.1s-1-1.9-1-3.6v-8.9
			h2.2v8.4c0,1.3,0.2,2.2,0.6,2.7c0.4,0.5,1.1,0.7,2.1,0.7c1.1,0,1.9-0.4,2.5-1.1c0.6-0.7,0.9-1.7,0.9-3v-7.7h2.2v10.5
			c0,0.8,0,1.4,0,1.9c0,0.5,0,0.8,0.1,1h-2.1c0,0,0-0.2,0-0.6S849.6,352.4,849.6,351.6L849.6,351.6z"/>
		<path class="st0" d="M857.4,347v6.9h-2.2v-10.2c0-0.5,0-1,0-1.5c0-0.5,0-1.1-0.1-1.6h2.1c0,0.4,0,0.7,0,1c0,0.3,0,0.6,0,0.8
			c0,0.2,0,0.4,0,0.6s0,0.3,0,0.3h0c0.2-0.8,0.5-1.4,0.8-1.9c0.3-0.4,0.6-0.7,1-0.9c0.4-0.2,0.8-0.2,1.4-0.2c0.3,0,0.6,0,0.9,0.1v2
			c-0.3-0.1-0.7-0.1-1.2-0.1c-0.9,0-1.6,0.4-2.1,1.2C857.7,344.4,857.4,345.5,857.4,347z"/>
		<path class="st0" d="M865.8,346.2v7.7h-2.2v-10.5c0-0.8,0-1.4,0-1.9c0-0.5,0-0.8-0.1-1h2.1c0,0.2,0,0.4,0,0.6c0,0.2,0,0.5,0,0.8
			c0,0.3,0,0.6,0,0.9h0c0.5-0.9,1.1-1.6,1.8-1.9c0.7-0.4,1.5-0.6,2.5-0.6c1.5,0,2.5,0.4,3.2,1.1s1,1.9,1,3.6v8.9H872v-8.4
			c0-1.3-0.2-2.2-0.6-2.7s-1.1-0.8-2.1-0.8c-1.1,0-1.9,0.4-2.5,1.1C866.1,343.9,865.8,344.9,865.8,346.2z"/>
	</g>
	<path class="st1" d="M724.5,109.1c17.9-43.2,60.5-73.6,110.2-73.6c65.9,0,119.3,53.4,119.3,119.3S900.6,274,834.8,274
		c-49.7,0-92.3-30.4-110.2-73.6"/>
	<g>
		<path class="st2" d="M910.7,154.8c0,39.7-30.4,71.9-70.1,71.9c-39.7,0-71.9-32.2-71.9-71.9s32.2-71.9,71.9-71.9"/>
		<polyline class="st2" points="896.8,168.7 911,154.8 920.7,171.4 		"/>
		<polygon class="st3" points="878.6,166.1 839.8,210.7 801,166.1 814.4,142.9 865.2,142.9 		"/>
		<line class="st3" x1="801" y1="166.1" x2="878.6" y2="166.1"/>
		<polygon class="st3" points="855.1,166.1 839.8,210.7 824.5,166.1 829.8,142.9 849.8,142.9 		"/>
		<g>
			<g>
				<path class="st4" d="M823.3,128.9c1.1,0,1.9,0.9,1.9,1.9s-0.9,1.9-1.9,1.9s-1.9-0.9-1.9-1.9S822.3,128.9,823.3,128.9
					 M823.3,128.7c-1.2,0-2.1,0.9-2.1,2.1s0.9,2.1,2.1,2.1c1.2,0,2.1-0.9,2.1-2.1S824.5,128.7,823.3,128.7L823.3,128.7z"/>
				<path class="st4" d="M823.3,117.8c0.7,0,1.2,0.6,1.2,1.2c0,0.7-0.6,1.2-1.2,1.2s-1.2-0.6-1.2-1.2
					C822.1,118.3,822.6,117.8,823.3,117.8 M823.3,117.6c-0.8,0-1.4,0.6-1.4,1.4c0,0.8,0.6,1.4,1.4,1.4c0.8,0,1.4-0.6,1.4-1.4
					C824.7,118.2,824.1,117.6,823.3,117.6L823.3,117.6z"/>
				<path class="st4" d="M823.3,106.7c0.3,0,0.5,0.2,0.5,0.5c0,0.3-0.2,0.5-0.5,0.5c-0.3,0-0.5-0.2-0.5-0.5
					C822.8,106.9,823,106.7,823.3,106.7 M823.3,106.5c-0.4,0-0.7,0.3-0.7,0.7c0,0.4,0.3,0.7,0.7,0.7c0.4,0,0.7-0.3,0.7-0.7
					C824.1,106.8,823.7,106.5,823.3,106.5L823.3,106.5z"/>
			</g>
			<g>
				<path class="st4" d="M834.3,128.9c1.1,0,1.9,0.9,1.9,1.9s-0.9,1.9-1.9,1.9s-1.9-0.9-1.9-1.9S833.3,128.9,834.3,128.9
					 M834.3,128.7c-1.2,0-2.1,0.9-2.1,2.1s0.9,2.1,2.1,2.1s2.1-0.9,2.1-2.1S835.5,128.7,834.3,128.7L834.3,128.7z"/>
				<path class="st4" d="M834.3,117.6c0.8,0,1.5,0.7,1.5,1.5c0,0.8-0.7,1.5-1.5,1.5s-1.5-0.7-1.5-1.5
					C832.9,118.2,833.5,117.6,834.3,117.6 M834.3,117.4c-0.9,0-1.7,0.7-1.7,1.7c0,0.9,0.7,1.7,1.7,1.7s1.7-0.7,1.7-1.7
					C836,118.1,835.3,117.4,834.3,117.4L834.3,117.4z"/>
				<path class="st4" d="M834.3,106.2c0.6,0,1,0.4,1,1c0,0.6-0.4,1-1,1s-1-0.4-1-1C833.3,106.6,833.8,106.2,834.3,106.2 M834.3,106
					c-0.7,0-1.2,0.5-1.2,1.2c0,0.7,0.5,1.2,1.2,1.2c0.7,0,1.2-0.5,1.2-1.2C835.5,106.5,835,106,834.3,106L834.3,106z"/>
				<path class="st4" d="M834.3,94.8c0.3,0,0.5,0.2,0.5,0.5c0,0.3-0.2,0.5-0.5,0.5s-0.5-0.2-0.5-0.5C833.8,95.1,834,94.8,834.3,94.8
					 M834.3,94.6c-0.4,0-0.7,0.3-0.7,0.7c0,0.4,0.3,0.7,0.7,0.7c0.4,0,0.7-0.3,0.7-0.7C835.1,95,834.7,94.6,834.3,94.6L834.3,94.6z"
					/>
			</g>
			<g>
				<path class="st4" d="M845.3,128.9c1.1,0,1.9,0.9,1.9,1.9s-0.9,1.9-1.9,1.9s-1.9-0.9-1.9-1.9S844.2,128.9,845.3,128.9
					 M845.3,128.7c-1.2,0-2.1,0.9-2.1,2.1s0.9,2.1,2.1,2.1c1.2,0,2.1-0.9,2.1-2.1S846.5,128.7,845.3,128.7L845.3,128.7z"/>
				<path class="st4" d="M845.3,117.6c0.8,0,1.5,0.7,1.5,1.5c0,0.8-0.7,1.5-1.5,1.5c-0.8,0-1.5-0.7-1.5-1.5
					C843.8,118.2,844.5,117.6,845.3,117.6 M845.3,117.4c-0.9,0-1.7,0.7-1.7,1.7c0,0.9,0.7,1.7,1.7,1.7c0.9,0,1.7-0.7,1.7-1.7
					C847,118.1,846.2,117.4,845.3,117.4L845.3,117.4z"/>
				<path class="st4" d="M845.3,106.2c0.6,0,1,0.4,1,1c0,0.6-0.4,1-1,1s-1-0.4-1-1C844.3,106.6,844.8,106.2,845.3,106.2 M845.3,106
					c-0.7,0-1.2,0.5-1.2,1.2c0,0.7,0.5,1.2,1.2,1.2c0.7,0,1.2-0.5,1.2-1.2C846.5,106.5,846,106,845.3,106L845.3,106z"/>
				<path class="st4" d="M845.3,94.8c0.3,0,0.5,0.2,0.5,0.5c0,0.3-0.2,0.5-0.5,0.5c-0.3,0-0.5-0.2-0.5-0.5
					C844.8,95.1,845,94.8,845.3,94.8 M845.3,94.6c-0.4,0-0.7,0.3-0.7,0.7c0,0.4,0.3,0.7,0.7,0.7c0.4,0,0.7-0.3,0.7-0.7
					C846,95,845.7,94.6,845.3,94.6L845.3,94.6z"/>
			</g>
			<g>
				<path class="st4" d="M856.3,128.9c1.1,0,1.9,0.9,1.9,1.9s-0.9,1.9-1.9,1.9s-1.9-0.9-1.9-1.9S855.3,128.9,856.3,128.9
					 M856.3,128.7c-1.2,0-2.1,0.9-2.1,2.1s0.9,2.1,2.1,2.1s2.1-0.9,2.1-2.1S857.5,128.7,856.3,128.7L856.3,128.7z"/>
				<path class="st4" d="M856.3,117.8c0.7,0,1.2,0.6,1.2,1.2c0,0.7-0.6,1.2-1.2,1.2s-1.2-0.6-1.2-1.2
					C855.1,118.3,855.6,117.8,856.3,117.8 M856.3,117.6c-0.8,0-1.4,0.6-1.4,1.4c0,0.8,0.6,1.4,1.4,1.4s1.4-0.6,1.4-1.4
					C857.7,118.2,857.1,117.6,856.3,117.6L856.3,117.6z"/>
				<path class="st4" d="M856.3,106.7c0.3,0,0.5,0.2,0.5,0.5c0,0.3-0.2,0.5-0.5,0.5s-0.5-0.2-0.5-0.5
					C855.8,106.9,856,106.7,856.3,106.7 M856.3,106.5c-0.4,0-0.7,0.3-0.7,0.7c0,0.4,0.3,0.7,0.7,0.7s0.7-0.3,0.7-0.7
					C857.1,106.8,856.7,106.5,856.3,106.5L856.3,106.5z"/>
			</g>
			<g>
				<path class="st0" d="M867.3,129.2c0.9,0,1.6,0.7,1.6,1.6s-0.7,1.6-1.6,1.6s-1.6-0.7-1.6-1.6S866.4,129.2,867.3,129.2
					 M867.3,128.7c-1.2,0-2.1,0.9-2.1,2.1s0.9,2.1,2.1,2.1s2.1-0.9,2.1-2.1S868.5,128.7,867.3,128.7L867.3,128.7z"/>
			</g>
			<g>
				<path class="st0" d="M812.3,129.2c0.9,0,1.6,0.7,1.6,1.6s-0.7,1.6-1.6,1.6s-1.6-0.7-1.6-1.6S811.4,129.2,812.3,129.2
					 M812.3,128.7c-1.2,0-2.1,0.9-2.1,2.1s0.9,2.1,2.1,2.1s2.1-0.9,2.1-2.1S813.5,128.7,812.3,128.7L812.3,128.7z"/>
			</g>
		</g>
	</g>
	<path class="st1" d="M503.1,206.8c19.3,39.8,60.1,67.3,107.4,67.3c1.2,0,2.4,0,3.6-0.1c37.9-1.1,68.7-20,92.4-48.4l51.1-70.9
		l-52.1-72.2c-25.6-29.8-54.1-45.9-91.3-47c-1.2,0-2.4-0.1-3.6-0.1c-47.2,0-88,27.4-107.4,67.3"/>
	<g>
		<g>
			<line class="st5" x1="576" y1="110" x2="653.7" y2="110"/>
		</g>
		<g>
			<line class="st5" x1="576" y1="127.1" x2="653.7" y2="127.1"/>
		</g>
		<g>
			<line class="st5" x1="576" y1="144.1" x2="653.7" y2="144.1"/>
		</g>
		<g>
			<line class="st5" x1="576" y1="161.2" x2="653.7" y2="161.2"/>
		</g>
		<g>
			<line class="st5" x1="576" y1="178.2" x2="638.1" y2="178.2"/>
		</g>
		<g>
			<line class="st5" x1="576" y1="195.3" x2="629.6" y2="195.3"/>
		</g>
		<linearGradient id="SVGID_1_" gradientUnits="userSpaceOnUse" x1="609.8598" y1="186.6446" x2="627.1519" y2="239.4078">
			<stop  offset="0.2" style="stop-color:#2A9C2B"/>
			<stop  offset="1" style="stop-color:#177717"/>
		</linearGradient>
		<polygon class="st6" points="633.9,222.7 608.3,222.7 611.1,210.4 631.1,210.4 		"/>
		
			<linearGradient id="SVGID_00000037693144779459081230000002935737731287699585_" gradientUnits="userSpaceOnUse" x1="635.681" y1="178.1822" x2="652.9731" y2="230.9453">
			<stop  offset="0.2" style="stop-color:#2A9C2B"/>
			<stop  offset="1" style="stop-color:#177717"/>
		</linearGradient>
		<polygon style="fill:url(#SVGID_00000037693144779459081230000002935737731287699585_);" points="662.5,222.7 636.9,222.7 
			639.7,210.4 659.7,210.4 		"/>
		
			<linearGradient id="SVGID_00000066476220959794459560000012206881293047632818_" gradientUnits="userSpaceOnUse" x1="644.7415" y1="175.2128" x2="662.0336" y2="227.976">
			<stop  offset="0.2" style="stop-color:#2A9C2B"/>
			<stop  offset="1" style="stop-color:#177717"/>
		</linearGradient>
		<polygon style="fill:url(#SVGID_00000066476220959794459560000012206881293047632818_);" points="661.3,188.6 635.7,188.6 
			638.5,176.3 658.5,176.3 		"/>
		
			<linearGradient id="SVGID_00000135678668747565550890000002389436304057942661_" gradientUnits="userSpaceOnUse" x1="660.4713" y1="170.0576" x2="677.7634" y2="222.8208">
			<stop  offset="0.2" style="stop-color:#2A9C2B"/>
			<stop  offset="1" style="stop-color:#177717"/>
		</linearGradient>
		<polygon style="fill:url(#SVGID_00000135678668747565550890000002389436304057942661_);" points="689.9,222.7 664.3,222.7 
			667.1,210.4 687.1,210.4 		"/>
		
			<linearGradient id="SVGID_00000066502718490507499550000001217783067007651508_" gradientUnits="userSpaceOnUse" x1="628.3317" y1="180.5908" x2="645.6238" y2="233.354">
			<stop  offset="0.2" style="stop-color:#2A9C2B"/>
			<stop  offset="1" style="stop-color:#177717"/>
		</linearGradient>
		<polygon style="fill:url(#SVGID_00000066502718490507499550000001217783067007651508_);" points="648.8,205.7 623.1,205.7 
			626,193.3 645.9,193.3 		"/>
		
			<linearGradient id="SVGID_00000114060024349204649560000005253390220717422495_" gradientUnits="userSpaceOnUse" x1="653.1219" y1="172.4663" x2="670.414" y2="225.2294">
			<stop  offset="0.2" style="stop-color:#2A9C2B"/>
			<stop  offset="1" style="stop-color:#177717"/>
		</linearGradient>
		<polygon style="fill:url(#SVGID_00000114060024349204649560000005253390220717422495_);" points="676.2,205.7 650.6,205.7 
			653.4,193.3 673.4,193.3 		"/>
		<path class="st1" d="M603.9,218.6H571c-4.7,0-8.4-3.8-8.4-8.4v-112c0-4.7,3.8-8.4,8.4-8.4h87.6c4.7,0,8.4,3.8,8.4,8.4v90.4"/>
	</g>
	<path class="st1" d="M281.8,196.7c17,45.2,60.6,77.4,111.7,77.4c1.2,0,2.4,0,3.6-0.1c37.9-1.1,68.7-20,92.4-48.4l51.1-70.9
		l-52.1-72.2c-25.6-29.8-54.1-45.9-91.3-47c-1.2,0-2.4-0.1-3.6-0.1c-51.1,0-94.7,32.1-111.7,77.2"/>
	<g>
		<g>
			<path class="st12" d="M400.8,80.1c41.2,0,74.6,33.5,74.6,74.6s-33.5,74.6-74.6,74.6s-74.6-33.5-74.6-74.6S359.6,80.1,400.8,80.1
				 M400.8,77.8c-42.5,0-77,34.5-77,77s34.5,77,77,77s77-34.5,77-77S443.3,77.8,400.8,77.8L400.8,77.8z"/>
		</g>
	</g>
	<g>
		<path class="st0" d="M413.8,91.4c7.9,0,17.8,4.1,26.3,11c6.9,5.6,12.3,12.3,15,18.9c2.7,6.5,2.6,12.1-0.4,15.8
			c-2.2,2.8-5.9,4.3-10.7,4.3c-1.5,0-3-0.1-4.7-0.4c-2.4-0.4-4.9-0.6-7.3-0.6c-5.6,0-11,1.1-15.9,3.4c-2.7,1.2-5.6,1.8-8.6,1.8
			c-0.6,0-1.2,0-1.9-0.1c-10-0.9-18.2-9.1-18.9-19.1c-0.5-6.2,1.8-12.2,6.2-16.5c4.1-4,6.9-7.9,8.8-11.9c0.3-0.8,0.8-1.5,1.3-2.1
			C405.3,92.9,409,91.4,413.8,91.4 M413.8,90.9c-4.7,0-8.7,1.4-11.1,4.5c-0.6,0.7-1,1.4-1.4,2.2c-2,4.5-5.1,8.3-8.6,11.8
			c-4.3,4.2-6.9,10.3-6.4,16.9c0.8,10.3,9.1,18.7,19.4,19.6c0.6,0.1,1.3,0.1,1.9,0.1c3.1,0,6.1-0.7,8.8-1.9
			c4.9-2.2,10.3-3.3,15.7-3.3c2.4,0,4.8,0.2,7.2,0.6c1.7,0.3,3.2,0.4,4.8,0.4c4.7,0,8.7-1.4,11.1-4.5c6.4-8-0.2-23.8-14.7-35.4
			C431.5,94.8,421.6,90.9,413.8,90.9L413.8,90.9z"/>
	</g>
	<g>
		<path class="st0" d="M408.4,111.2c7.2,0,13,5.8,13,13s-5.8,13-13,13s-13-5.8-13-13S401.2,111.2,408.4,111.2 M408.4,110.7
			c-7.5,0-13.5,6.1-13.5,13.5c0,7.5,6.1,13.5,13.5,13.5s13.5-6.1,13.5-13.5C421.9,116.7,415.9,110.7,408.4,110.7L408.4,110.7z"/>
	</g>
	<g>
		<path class="st0" d="M355.8,116.7c4.7,0,8.5,3.8,8.5,8.5c0,4.7-3.8,8.5-8.5,8.5s-8.5-3.8-8.5-8.5
			C347.3,120.5,351.1,116.7,355.8,116.7 M355.8,116.2c-4.9,0-9,4-9,9c0,4.9,4,9,9,9c4.9,0,9-4,9-9
			C364.8,120.2,360.7,116.2,355.8,116.2L355.8,116.2z"/>
	</g>
	<g>
		<path class="st0" d="M353.3,163.7v0.5h0c3.3,0,7.6,3.3,13.1,7.5c6.3,4.8,14,10.7,23.5,14c9.5,3.3,19.3,3.5,27.1,3.7
			c7.7,0.2,13.7,0.3,15.8,3.2c1.1,1.6,1,4.1-0.2,7.5c-4.4,12.7-18.3,20.9-35.2,20.9c-6.2,0-12.5-1.1-18.7-3.2
			c-23.5-8.2-37.5-29.5-31.2-47.4c1.5-4.2,3.3-6.2,5.8-6.2L353.3,163.7 M353.3,163.7c-2.6,0-4.6,1.8-6.3,6.5
			c-6.4,18.2,7.7,39.7,31.5,48c6.4,2.2,12.8,3.3,18.9,3.3c16.7,0,31.1-7.9,35.7-21.2c6.4-18.2-19.3-6.7-43.1-15
			C372.4,179.1,360.7,163.7,353.3,163.7L353.3,163.7z"/>
	</g>
	<g>
		<path class="st0" d="M441.6,158.7v0.5c3.6,0,7.2,1,10.5,2.9c4.2,2.4,7.3,5.9,8.9,9.9c1.6,4,1.4,7.9-0.4,11.2
			c-2.2,3.8-6.7,6.1-12,6.1c-3.6,0-7.2-1-10.5-2.9c-4.2-2.4-7.3-5.9-8.9-9.9c-1.6-4-1.4-7.9,0.4-11.2c2.2-3.8,6.7-6.1,12-6.1
			L441.6,158.7 M441.6,158.7c-5.3,0-10,2.2-12.4,6.4c-4,6.9-0.1,16.7,8.7,21.8c3.5,2,7.3,3,10.8,3c5.3,0,10-2.2,12.4-6.4
			c4-6.9,0.1-16.7-8.7-21.8C448.8,159.7,445.1,158.7,441.6,158.7L441.6,158.7z"/>
	</g>
	<g>
		<path class="st0" d="M442.7,164.3L442.7,164.3c2.4,0,4.8,0.7,7,2c5.7,3.3,8.2,9.5,5.6,13.9c-1.5,2.5-4.4,4-7.9,4
			c-2.4,0-4.8-0.7-7-2c-2.8-1.6-4.9-3.9-5.9-6.6c-1-2.6-0.9-5.2,0.3-7.4C436.3,165.8,439.2,164.3,442.7,164.3 M442.7,163.8
			c-3.5,0-6.7,1.5-8.3,4.3c-2.7,4.7-0.1,11.2,5.8,14.6c2.4,1.4,4.9,2,7.3,2c3.5,0,6.7-1.5,8.3-4.3c2.7-4.7,0.1-11.2-5.8-14.6
			C447.6,164.5,445.1,163.8,442.7,163.8L442.7,163.8z"/>
	</g>
	
		<linearGradient id="SVGID_00000059299428534748744510000016659851544748996255_" gradientUnits="userSpaceOnUse" x1="371.1917" y1="112.2564" x2="379.8348" y2="112.2564">
		<stop  offset="0.2" style="stop-color:#2A9C2B"/>
		<stop  offset="1" style="stop-color:#177717"/>
	</linearGradient>
	<path style="fill:url(#SVGID_00000059299428534748744510000016659851544748996255_);" d="M371.2,128.3c-0.1,0.2,0.2,0.4,0.3,0.2
		c1.9-1.8,7.8-8.1,8.3-17.8c0.4-7.2-2.6-12.6-4-14.7c-0.2-0.2-0.5-0.1-0.5,0.2c0,3.2,0.8,12.3-0.3,17.8
		C373.9,119.5,371.9,126.1,371.2,128.3z"/>
	
		<linearGradient id="SVGID_00000108988860793667538840000000992190517440790443_" gradientUnits="userSpaceOnUse" x1="387.1154" y1="175.431" x2="418.0587" y2="175.431">
		<stop  offset="0.2" style="stop-color:#2A9C2B"/>
		<stop  offset="1" style="stop-color:#177717"/>
	</linearGradient>
	<path style="fill:url(#SVGID_00000108988860793667538840000000992190517440790443_);" d="M417.7,182c0.2,0.1,0.4-0.1,0.3-0.3
		c-1.3-2.2-6.2-9.3-15.5-12c-6.9-1.9-12.9-0.3-15.2,0.7c-0.3,0.1-0.2,0.5,0,0.5c3.1,0.7,12.1,1.9,17.3,4.2
		C409.7,177.5,415.8,180.9,417.7,182z"/>
	
		<linearGradient id="SVGID_00000150089032186205430510000007060922561780671165_" gradientUnits="userSpaceOnUse" x1="411.3514" y1="154.8261" x2="439.9998" y2="154.8261">
		<stop  offset="0.2" style="stop-color:#2A9C2B"/>
		<stop  offset="1" style="stop-color:#177717"/>
	</linearGradient>
	<path style="fill:url(#SVGID_00000150089032186205430510000007060922561780671165_);" d="M411.9,160.9c-0.3,0.2-0.6-0.1-0.5-0.4
		c1.2-2.5,4.8-8.5,12.4-10.9c7.6-2.3,13.8,1,16.1,2.6c0.3,0.2,0.1,0.7-0.2,0.6c-2.7-0.2-9.5-0.3-16.5,2.5
		C416.9,157.8,413.4,159.8,411.9,160.9z"/>
	
		<linearGradient id="SVGID_00000049926308135315353140000008722535618427203502_" gradientUnits="userSpaceOnUse" x1="333.1298" y1="150.5222" x2="362.5951" y2="150.5222">
		<stop  offset="0.2" style="stop-color:#2A9C2B"/>
		<stop  offset="1" style="stop-color:#177717"/>
	</linearGradient>
	<path style="fill:url(#SVGID_00000049926308135315353140000008722535618427203502_);" d="M333.6,155.5c-0.3,0.2-0.6-0.2-0.4-0.5
		c1.5-2.3,5.8-7.9,13.7-9.2c7.9-1.3,13.5,2.8,15.6,4.6c0.3,0.2,0,0.7-0.3,0.6c-2.7-0.5-9.4-1.5-16.7,0.4
		C339,153.1,335.3,154.7,333.6,155.5z"/>
	
		<linearGradient id="SVGID_00000038399889732076371060000014353521113355425457_" gradientUnits="userSpaceOnUse" x1="372.4253" y1="152.7886" x2="385.169" y2="152.7886">
		<stop  offset="0.2" style="stop-color:#2A9C2B"/>
		<stop  offset="1" style="stop-color:#177717"/>
	</linearGradient>
	<path style="fill:url(#SVGID_00000038399889732076371060000014353521113355425457_);" d="M374.5,139.4c-0.4-0.1-0.7,0.3-0.4,0.6
		c2.1,2.2,6.4,7.6,5.2,13.4c-1.2,5.8-5,10.3-6.8,12.1c-0.3,0.3,0,0.7,0.4,0.6c3-0.9,11.5-3.7,12.2-12.2
		C385.9,144.9,378.4,140.7,374.5,139.4z"/>
	<g>
		<path class="st0" d="M165.6,37c1.1,0,2.2,0,3.5,0.1c35.2,1,63.9,15.8,90.2,46.4l51.4,71.2l-50.4,70c-12.2,14.6-25.8,26-40.4,34
			c-15.8,8.6-32.9,13.3-50.8,13.8c-1.3,0-2.5,0.1-3.5,0.1c-31.5,0-61-12.3-83.3-34.5c-22.2-22.2-34.5-51.8-34.5-83.3
			s12.3-61,34.5-83.3C104.6,49.2,134.1,37,165.6,37 M165.6,35.5c-65.9,0-119.3,53.4-119.3,119.3S99.7,274,165.6,274
			c1.2,0,2.4,0,3.6-0.1c37.9-1.1,68.7-20,92.4-48.4l51.1-70.9l-52.1-72.2c-25.6-29.8-54.1-45.9-91.3-47
			C168,35.5,166.8,35.5,165.6,35.5L165.6,35.5z"/>
	</g>
	<g>
		<path class="st0" d="M178.9,76c2.7,0,5,2.2,5,5s-2.2,5-5,5s-5-2.2-5-5S176.2,76,178.9,76 M178.9,75.5c-3,0-5.5,2.5-5.5,5.5
			s2.5,5.5,5.5,5.5s5.5-2.5,5.5-5.5S181.9,75.5,178.9,75.5L178.9,75.5z"/>
	</g>
	<g>
		<path class="st0" d="M139.5,80.6c1,0,1.8,0.8,1.8,1.8c0,1-0.8,1.8-1.8,1.8c-1,0-1.8-0.8-1.8-1.8C137.7,81.4,138.5,80.6,139.5,80.6
			 M139.5,80.1c-1.3,0-2.3,1-2.3,2.3c0,1.3,1,2.3,2.3,2.3c1.3,0,2.3-1,2.3-2.3C141.8,81.1,140.7,80.1,139.5,80.1L139.5,80.1z"/>
	</g>
	<g>
		<g>
			<polygon class="st18" points="142.8,214.7 144.8,129.8 146.7,214.7 142.8,214.7 			"/>
		</g>
		<g>
			<path class="st12" d="M144.7,197c0,0,1.4-10.6-5.7-20.5c-4.4-6.2-9.7-8.9-11.9-9.7c-0.3-0.1-0.5,0.2-0.3,0.4
				c2,2.6,8.4,11,11.1,16.3C141.1,189.8,144.7,197,144.7,197z"/>
		</g>
		<g>
			<path class="st12" d="M144.9,181.9c0,0-1.4-10.6,5.7-20.5c4.4-6.2,9.7-8.9,11.9-9.7c0.3-0.1,0.5,0.2,0.3,0.4
				c-2,2.6-8.4,11-11.1,16.3C148.4,174.7,144.9,181.9,144.9,181.9z"/>
		</g>
		<g>
			<path class="st12" d="M144.7,164.3c0,0,1.4-10.6-5.7-20.5c-4.4-6.2-9.7-8.9-11.9-9.7c-0.3-0.1-0.5,0.2-0.3,0.4
				c2,2.6,8.4,11,11.1,16.3C141.1,157.1,144.7,164.3,144.7,164.3z"/>
		</g>
		<g>
			<path class="st12" d="M144.7,133.5c0,0,1.4-10.6-5.7-20.5c-4.4-6.2-9.7-8.9-11.9-9.7c-0.3-0.1-0.5,0.2-0.3,0.4
				c2,2.6,8.4,11,11.1,16.3C141.1,126.3,144.7,133.5,144.7,133.5z"/>
		</g>
		<g>
			<path class="st12" d="M144.9,149.2c0,0-1.4-10.6,5.7-20.5c4.4-6.2,9.7-8.9,11.9-9.7c0.3-0.1,0.5,0.2,0.3,0.4
				c-2,2.6-8.4,11-11.1,16.3C148.4,142,144.9,149.2,144.9,149.2z"/>
		</g>
		<g>
			<polygon class="st18" points="184.5,214.7 186.5,129.8 188.4,214.7 184.5,214.7 			"/>
		</g>
		<g>
			<path class="st12" d="M186.4,197c0,0,1.4-10.6-5.7-20.5c-4.4-6.2-9.7-8.9-11.9-9.7c-0.3-0.1-0.5,0.2-0.3,0.4
				c2,2.6,8.4,11,11.1,16.3C182.8,189.8,186.4,197,186.4,197z"/>
		</g>
		<g>
			<path class="st12" d="M186.6,181.9c0,0-1.4-10.6,5.7-20.5c4.4-6.2,9.7-8.9,11.9-9.7c0.3-0.1,0.5,0.2,0.3,0.4
				c-2,2.6-8.4,11-11.1,16.3C190.1,174.7,186.6,181.9,186.6,181.9z"/>
		</g>
		<g>
			<path class="st12" d="M186.4,164.3c0,0,1.4-10.6-5.7-20.5c-4.4-6.2-9.7-8.9-11.9-9.7c-0.3-0.1-0.5,0.2-0.3,0.4
				c2,2.6,8.4,11,11.1,16.3C182.8,157.1,186.4,164.3,186.4,164.3z"/>
		</g>
		<g>
			<path class="st12" d="M186.4,133.5c0,0,1.4-10.6-5.7-20.5c-4.4-6.2-9.7-8.9-11.9-9.7c-0.3-0.1-0.5,0.2-0.3,0.4
				c2,2.6,8.4,11,11.1,16.3C182.8,126.3,186.4,133.5,186.4,133.5z"/>
		</g>
		<g>
			<path class="st12" d="M186.6,149.2c0,0-1.4-10.6,5.7-20.5c4.4-6.2,9.7-8.9,11.9-9.7c0.3-0.1,0.5,0.2,0.3,0.4
				c-2,2.6-8.4,11-11.1,16.3C190.1,142,186.6,149.2,186.6,149.2z"/>
		</g>
	</g>
	<g>
		<line class="st19" x1="62.9" y1="214.7" x2="268.3" y2="214.7"/>
	</g>
	<g>
		<path class="st0" d="M99.5,139.8c1.1,0,1.9,0.9,1.9,1.9s-0.9,1.9-1.9,1.9s-1.9-0.9-1.9-1.9S98.5,139.8,99.5,139.8 M99.5,139.3
			c-1.3,0-2.4,1.1-2.4,2.4s1.1,2.4,2.4,2.4s2.4-1.1,2.4-2.4S100.8,139.3,99.5,139.3L99.5,139.3z"/>
	</g>
	<g>
		<path class="st0" d="M230.2,101.9c1.1,0,1.9,0.9,1.9,1.9s-0.9,1.9-1.9,1.9s-1.9-0.9-1.9-1.9S229.1,101.9,230.2,101.9 M230.2,101.4
			c-1.3,0-2.4,1.1-2.4,2.4c0,1.3,1.1,2.4,2.4,2.4s2.4-1.1,2.4-2.4C232.6,102.5,231.5,101.4,230.2,101.4L230.2,101.4z"/>
	</g>
	<g>
		<path class="st0" d="M85.3,121.9c1.2,0,2.1,0.9,2.1,2.1s-0.9,2.1-2.1,2.1s-2.1-0.9-2.1-2.1S84.1,121.9,85.3,121.9 M85.3,121.4
			c-1.4,0-2.6,1.2-2.6,2.6s1.2,2.6,2.6,2.6s2.6-1.2,2.6-2.6S86.7,121.4,85.3,121.4L85.3,121.4z"/>
	</g>
	<g>
		<path class="st0" d="M239.1,139.7c1.3,0,2.4,1.1,2.4,2.4s-1.1,2.4-2.4,2.4s-2.4-1.1-2.4-2.4S237.7,139.7,239.1,139.7 M239.1,139.1
			c-1.7,0-3,1.3-3,3s1.3,3,3,3c1.7,0,3-1.3,3-3S240.7,139.1,239.1,139.1L239.1,139.1z"/>
	</g>
	<g>
		<path class="st0" d="M114,110.1c2.3,0,4.2,1.9,4.2,4.2s-1.9,4.2-4.2,4.2s-4.2-1.9-4.2-4.2S111.6,110.1,114,110.1 M114,109.6
			c-2.6,0-4.7,2.1-4.7,4.7s2.1,4.7,4.7,4.7s4.7-2.1,4.7-4.7S116.6,109.6,114,109.6L114,109.6z"/>
	</g>
	<g>
		<path class="st0" d="M220.1,122.4c2.3,0,4.2,1.9,4.2,4.2c0,2.3-1.9,4.2-4.2,4.2s-4.2-1.9-4.2-4.2
			C215.9,124.3,217.8,122.4,220.1,122.4 M220.1,121.9c-2.6,0-4.7,2.1-4.7,4.7c0,2.6,2.1,4.7,4.7,4.7c2.6,0,4.7-2.1,4.7-4.7
			C224.8,124,222.7,121.9,220.1,121.9L220.1,121.9z"/>
	</g>
	<g>
		<path class="st0" d="M107.4,156.9c2.3,0,4.2,1.9,4.2,4.2s-1.9,4.2-4.2,4.2s-4.2-1.9-4.2-4.2S105.1,156.9,107.4,156.9 M107.4,156.4
			c-2.6,0-4.7,2.1-4.7,4.7c0,2.6,2.1,4.7,4.7,4.7s4.7-2.1,4.7-4.7C112.2,158.6,110,156.4,107.4,156.4L107.4,156.4z"/>
	</g>
	<g>
		<path class="st0" d="M154.8,98.5c1.3,0,2.4,1.1,2.4,2.4s-1.1,2.4-2.4,2.4s-2.4-1.1-2.4-2.4S153.5,98.5,154.8,98.5 M154.8,98
			c-1.6,0-2.9,1.3-2.9,2.9c0,1.6,1.3,2.9,2.9,2.9c1.6,0,2.9-1.3,2.9-2.9C157.8,99.3,156.5,98,154.8,98L154.8,98z"/>
	</g>
	<g>
		<path class="st0" d="M107.4,91c1.3,0,2.4,1.1,2.4,2.4c0,1.3-1.1,2.4-2.4,2.4s-2.4-1.1-2.4-2.4C105,92.1,106.1,91,107.4,91
			 M107.4,90.5c-1.6,0-2.9,1.3-2.9,2.9c0,1.6,1.3,2.9,2.9,2.9c1.6,0,2.9-1.3,2.9-2.9C110.4,91.9,109,90.5,107.4,90.5L107.4,90.5z"/>
	</g>
	<g>
		<path class="st0" d="M220,161.8c1.5,0,2.8,1.3,2.8,2.8s-1.3,2.8-2.8,2.8c-1.5,0-2.8-1.3-2.8-2.8S218.4,161.8,220,161.8 M220,161.2
			c-1.9,0-3.4,1.5-3.4,3.4s1.5,3.4,3.4,3.4c1.9,0,3.4-1.5,3.4-3.4S221.8,161.2,220,161.2L220,161.2z"/>
	</g>
	<g>
		<path class="st0" d="M205.5,89.7c1.3,0,2.4,1.1,2.4,2.4s-1.1,2.4-2.4,2.4s-2.4-1.1-2.4-2.4S204.2,89.7,205.5,89.7 M205.5,89.2
			c-1.6,0-2.9,1.3-2.9,2.9c0,1.6,1.3,2.9,2.9,2.9c1.6,0,2.9-1.3,2.9-2.9C208.5,90.5,207.1,89.2,205.5,89.2L205.5,89.2z"/>
	</g>
</g>
</svg>
